<svg width="32" height="32" viewBox="0 0 32 32" fill="none" xmlns="http://www.w3.org/2000/svg">
<path d="M25.5 17.9925C25.1022 17.9925 24.7206 18.1506 24.4393 18.4319C24.158 18.7132 24 19.0947 24 19.4925V20.0625L21.78 17.8425C20.9961 17.0648 19.9367 16.6285 18.8325 16.6285C17.7283 16.6285 16.6689 17.0648 15.885 17.8425L14.835 18.8925L11.115 15.1725C10.3202 14.4159 9.26485 13.9939 8.1675 13.9939C7.07015 13.9939 6.01482 14.4159 5.22 15.1725L3 17.3925V8.99252C3 8.5947 3.15804 8.21316 3.43934 7.93186C3.72064 7.65056 4.10217 7.49252 4.5 7.49252H15C15.3978 7.49252 15.7794 7.33448 16.0607 7.05318C16.342 6.77188 16.5 6.39034 16.5 5.99252C16.5 5.5947 16.342 5.21316 16.0607 4.93186C15.7794 4.65056 15.3978 4.49252 15 4.49252H4.5C3.30653 4.49252 2.16193 4.96663 1.31802 5.81054C0.474106 6.65445 0 7.79905 0 8.99252V26.9925C0 28.186 0.474106 29.3306 1.31802 30.1745C2.16193 31.0184 3.30653 31.4925 4.5 31.4925H22.5C23.6935 31.4925 24.8381 31.0184 25.682 30.1745C26.5259 29.3306 27 28.186 27 26.9925V19.4925C27 19.0947 26.842 18.7132 26.5607 18.4319C26.2794 18.1506 25.8978 17.9925 25.5 17.9925ZM4.5 28.4925C4.10217 28.4925 3.72064 28.3345 3.43934 28.0532C3.15804 27.7719 3 27.3903 3 26.9925V21.6375L7.35 17.2875C7.57037 17.0775 7.8631 16.9604 8.1675 16.9604C8.4719 16.9604 8.76463 17.0775 8.985 17.2875L13.74 22.0425L20.19 28.4925H4.5ZM24 26.9925C23.9978 27.2797 23.9032 27.5585 23.73 27.7875L16.965 20.9925L18.015 19.9425C18.1225 19.8328 18.2509 19.7456 18.3926 19.686C18.5342 19.6265 18.6863 19.5959 18.84 19.5959C18.9937 19.5959 19.1458 19.6265 19.2874 19.686C19.4291 19.7456 19.5575 19.8328 19.665 19.9425L24 24.3075V26.9925ZM31.065 4.92752L26.565 0.42752C26.4223 0.290959 26.2541 0.183912 26.07 0.11252C25.7048 -0.0375068 25.2952 -0.0375068 24.93 0.11252C24.7459 0.183912 24.5777 0.290959 24.435 0.42752L19.935 4.92752C19.7951 5.06738 19.6842 5.23341 19.6085 5.41615C19.5328 5.59888 19.4939 5.79473 19.4939 5.99252C19.4939 6.39197 19.6525 6.77506 19.935 7.05752C20.2175 7.33998 20.6005 7.49866 21 7.49866C21.3995 7.49866 21.7825 7.33998 22.065 7.05752L24 5.10752V13.4925C24 13.8903 24.158 14.2719 24.4393 14.5532C24.7206 14.8345 25.1022 14.9925 25.5 14.9925C25.8978 14.9925 26.2794 14.8345 26.5607 14.5532C26.842 14.2719 27 13.8903 27 13.4925V5.10752L28.935 7.05752C29.0744 7.19811 29.2403 7.3097 29.4231 7.38586C29.6059 7.46201 29.802 7.50122 30 7.50122C30.198 7.50122 30.3941 7.46201 30.5769 7.38586C30.7597 7.3097 30.9256 7.19811 31.065 7.05752C31.2056 6.91808 31.3172 6.75217 31.3933 6.56939C31.4695 6.3866 31.5087 6.19054 31.5087 5.99252C31.5087 5.7945 31.4695 5.59844 31.3933 5.41566C31.3172 5.23287 31.2056 5.06696 31.065 4.92752Z" fill="black"/>
</svg>
